<svg width="211" height="211" viewBox="0 0 211 211" fill="none" xmlns="http://www.w3.org/2000/svg">
<g clip-path="url(#clip0_105_4)">
<path d="M138.662 176.596C178.155 158.053 195.139 111.004 176.595 71.5102C158.052 32.0165 111.003 15.0331 71.5092 33.5767C32.0155 52.1203 15.0321 99.1688 33.5757 138.663C52.1193 178.156 99.1678 195.14 138.662 176.596Z" fill="#F47521"/>
<path d="M86.8616 88.5709C86.1369 88.9111 85.7741 89.5418 85.7694 90.4736L87.5039 136.302C87.5696 137.192 87.9646 137.476 88.6893 137.135L99.9667 131.84C100.758 131.469 101.121 130.838 101.059 129.937L100.529 115.737L100.526 115.693L99.9631 103.845L99.9335 103.859L99.6095 96.4031L98.9711 82.876L86.8655 88.56L86.8616 88.5709Z" fill="white"/>
<path d="M123.35 76.5373C123.926 77.7649 124.256 79.3519 124.333 81.3017L124.833 94.4964C124.909 96.4462 124.843 98.0928 124.649 99.4476C124.444 100.798 124.042 101.98 123.436 102.996C122.837 104.008 121.989 104.911 120.902 105.711C119.822 106.506 118.436 107.302 116.735 108.1L102.174 114.937L101.611 103.089L101.265 95.6435L100.707 83.9019C100.657 82.8153 101.259 81.8105 102.243 81.3487L115.213 75.2584C119.333 73.3244 122.048 73.7459 123.358 76.5339L123.35 76.5373Z" fill="white"/>
<path d="M110.569 40.1829L115.401 40.8832C116.439 41.0367 117.19 41.4243 117.653 42.0644C118.116 42.7044 118.279 43.4942 118.138 44.4628C118.001 45.4206 117.603 46.1491 116.959 46.6412C116.314 47.1333 115.473 47.3025 114.457 47.1569L111.282 46.6984L110.741 50.4092L109.124 50.1756L110.565 40.1937L110.569 40.1829ZM114.594 45.7569C115.107 45.8317 115.538 45.729 115.88 45.4597C116.223 45.1904 116.435 44.7753 116.51 44.2253C116.593 43.6719 116.509 43.2239 116.269 42.8854C116.029 42.5469 115.64 42.3327 115.097 42.2535L111.98 41.8038L111.469 45.3106L114.587 45.7603L114.594 45.7569Z" fill="white"/>
<path d="M119.165 50.6865C118.608 49.5763 118.594 48.2018 119.135 46.5669C119.676 44.932 120.504 43.8305 121.617 43.2805C122.728 42.7232 124.051 42.6973 125.581 43.2065C127.118 43.7123 128.169 44.5276 128.726 45.6377C129.283 46.7479 129.297 48.1224 128.756 49.7573C128.215 51.3922 127.387 52.4938 126.274 53.0437C125.164 53.6011 123.836 53.6195 122.299 53.1138C120.773 52.612 119.733 51.8006 119.169 50.6939L119.165 50.6865ZM127.133 49.3189L127.188 49.1485C127.964 46.7628 127.289 45.2112 125.147 44.5115C123.019 43.8048 121.551 44.6384 120.747 47.0197L120.691 47.1901C119.906 49.5535 120.591 51.0908 122.73 51.8014C124.88 52.5159 126.351 51.6897 127.126 49.3224L127.133 49.3189Z" fill="white"/>
<path d="M132.123 45.5681L133.607 46.4417L131.746 53.2811C131.681 53.528 131.523 54.0175 131.278 54.7461L131.34 54.7805L132.34 53.6247L137.119 48.5018L139 49.6044L136.901 56.3028C136.817 56.5858 136.645 57.064 136.398 57.7486L136.459 57.783C136.97 57.2182 137.319 56.8467 137.51 56.6577L142.537 51.6799L143.896 52.4772L136.345 59.7501L134.579 58.7197L136.661 51.9661C136.783 51.5927 136.953 51.0889 137.188 50.4551L137.127 50.4207C136.663 50.9904 136.321 51.3949 136.092 51.6378L131.225 56.7658L129.46 55.7355L132.111 45.6007L132.123 45.5681Z" fill="white"/>
<path d="M145.524 54.0234L151.363 59.2329L150.435 60.2735L145.811 56.1539L143.928 58.2746L148.069 61.962L147.141 63.0026L143 59.3152L140.966 61.5967L145.654 65.7764L144.726 66.817L138.818 61.5583L145.527 54.0308L145.524 54.0234Z" fill="white"/>
<path d="M153.355 61.303L156.641 65.4371C157.289 66.2608 157.588 67.0502 157.51 67.8085C157.433 68.5668 157.041 69.2295 156.332 69.7968C155.788 70.2329 155.226 70.4785 154.647 70.5337C154.069 70.5888 153.505 70.4653 152.965 70.1413L151.003 74.5552L149.897 73.1611L151.772 69.0228L149.638 66.3424L146.469 68.859L145.456 67.5841L153.358 61.3104L153.355 61.303ZM152.928 68.2546C153.254 68.661 153.621 68.8857 154.044 68.94C154.463 68.9868 154.883 68.8437 155.297 68.514C155.692 68.2022 155.905 67.8493 155.94 67.4628C155.975 67.0762 155.825 66.6595 155.488 66.2309L153.283 63.4575L150.726 65.4885L152.931 68.262L152.928 68.2546Z" fill="white"/>
<path d="M162.367 74.247L165.533 80.7208L164.279 81.3368L161.829 76.3316L159.151 77.6433L161.364 82.1639L160.11 82.7798L157.9 78.2666L154.031 80.1556L153.314 78.687L162.378 74.251L162.367 74.247Z" fill="white"/>
<path d="M166.468 83.251L167.921 88.3266C168.207 89.3387 168.175 90.1748 167.815 90.8494C167.455 91.5239 166.84 91.9839 165.964 92.2327C165.295 92.4208 164.68 92.4386 164.122 92.2676C163.563 92.0967 163.1 91.7637 162.718 91.2572L159.215 94.5806L158.727 92.8691L162.045 89.7678L161.103 86.4736L157.213 87.5873L156.765 86.0194L166.468 83.251ZM163.404 89.5089C163.549 90.0095 163.803 90.3593 164.171 90.5658C164.539 90.7722 164.976 90.8013 165.488 90.6604C165.966 90.526 166.301 90.2785 166.489 89.9286C166.677 89.5787 166.688 89.1404 166.54 88.6142L165.564 85.2095L162.428 86.1043L163.404 89.5089Z" fill="white"/>
<path d="M160.569 96.1382C161.364 95.1783 162.616 94.6172 164.327 94.4547C166.049 94.2962 167.379 94.6104 168.338 95.4052C169.298 96.2001 169.846 97.405 170 99.0022C170.151 100.61 169.834 101.896 169.039 102.856C168.244 103.816 166.991 104.377 165.273 104.543C163.555 104.709 162.222 104.387 161.262 103.593C160.31 102.794 159.754 101.593 159.601 99.9773C159.454 98.3765 159.774 97.098 160.558 96.1342L160.569 96.1382ZM165.018 102.885L165.19 102.867C167.685 102.625 168.834 101.382 168.619 99.1363C168.408 96.8981 167.051 95.8924 164.557 96.116L164.384 96.1336C161.904 96.3685 160.77 97.605 160.985 99.8506C161.196 102.107 162.546 103.116 165.018 102.885Z" fill="white"/>
<path d="M170.278 106.859L170.016 109.301L163.359 110.73C162.947 110.815 162.349 110.907 161.572 111.001L161.564 111.059C162.365 111.324 162.93 111.528 163.255 111.682L169.465 114.452L169.212 116.854L159.184 115.795L159.352 114.173L165.903 114.861L167.698 115.11L167.712 115.004C167.284 114.862 166.944 114.733 166.698 114.632L159.643 111.446L159.791 110.032L167.356 108.421C167.51 108.384 167.763 108.347 168.126 108.293L168.423 108.253L168.432 108.177L166.631 108.03L160.08 107.342L160.242 105.804L170.278 106.859Z" fill="white"/>
<path d="M167.806 123.507L167.153 125.096L160.121 124.209C159.87 124.174 159.364 124.096 158.611 123.953L158.58 124.022L159.861 124.846L165.602 128.865L164.777 130.877L157.85 129.734C157.559 129.69 157.061 129.59 156.348 129.438L156.317 129.506C156.943 129.935 157.37 130.23 157.579 130.385L163.211 134.672L162.612 136.127L154.362 129.666L155.136 127.778L162.114 128.896C162.504 128.957 163.024 129.065 163.689 129.213L163.72 129.144C163.093 128.771 162.643 128.486 162.37 128.289L156.609 124.189L157.383 122.3L167.791 123.514L167.806 123.507Z" fill="white"/>
<path d="M161.269 137.822L160.43 139.227L151.772 134.05L152.611 132.646L161.269 137.822Z" fill="white"/>
<path d="M156.254 142.884L158.275 140.211L159.398 141.065L154.362 147.716L153.239 146.863L155.261 144.19L148.344 138.954L149.33 137.652L156.247 142.888L156.254 142.884Z" fill="white"/>
<path d="M152.866 149.394L151.68 150.52L148.781 147.459L145.046 150.999L147.949 154.068L146.763 155.193L139.824 147.874L141.01 146.748L144.073 149.985L147.808 146.444L144.745 143.207L145.931 142.082L152.87 149.401L152.866 149.394Z" fill="white"/>
<path d="M144.352 156.921L143.038 157.89L137.058 149.768L138.372 148.799L144.352 156.921Z" fill="white"/>
<path d="M140.666 159.662L139.358 160.394L131.885 157.07C131.716 156.996 131.488 156.878 131.203 156.732L131.15 156.792L131.522 157.43L134.673 163.026L133.332 163.783L128.392 154.992L129.678 154.271L137.196 157.654C137.308 157.701 137.445 157.763 137.59 157.839C137.734 157.916 137.839 157.966 137.9 158.001L137.96 157.955L137.584 157.309L134.395 151.632L135.737 150.875L140.68 159.674L140.666 159.662Z" fill="white"/>
<path d="M100.165 170.032L95.3281 169.379C94.2864 169.237 93.5358 168.849 93.0689 168.22C92.602 167.591 92.4318 166.786 92.5613 165.832C92.6874 164.87 93.078 164.145 93.7264 163.642C94.3708 163.15 95.2049 162.966 96.2284 163.108L99.4009 163.541L99.9055 159.829L101.523 160.045L100.169 170.04L100.165 170.032ZM96.0954 164.497C95.5854 164.43 95.1553 164.533 94.8159 164.809C94.4765 165.086 94.2726 165.498 94.1969 166.048C94.1212 166.598 94.2052 167.046 94.4454 167.384C94.6855 167.723 95.0789 167.926 95.6215 168.005L98.7431 168.426L99.2245 164.914L96.1028 164.494L96.0954 164.497Z" fill="white"/>
<path d="M91.4755 159.599C92.0476 160.703 92.0721 162.081 91.5419 163.72C91.0118 165.359 90.1951 166.464 89.0884 167.029C87.9817 167.594 86.6616 167.627 85.1314 167.136C83.5904 166.641 82.5358 165.837 81.9636 164.733C81.3915 163.63 81.3705 162.259 81.8972 160.613C82.4239 158.967 83.244 157.869 84.3507 157.304C85.4574 156.739 86.7849 156.702 88.326 157.197C89.8561 157.688 90.9073 158.485 91.4829 159.596L91.4755 159.599ZM83.5204 161.033L83.4651 161.203C82.7008 163.593 83.3973 165.134 85.5474 165.83C87.6831 166.515 89.1439 165.667 89.9191 163.281L89.9745 163.111C90.7383 160.74 90.0487 159.213 87.8987 158.517C85.7413 157.824 84.2843 158.662 83.5204 161.033Z" fill="white"/>
<path d="M78.5626 164.832L77.0671 163.973L78.8663 157.118C78.9308 156.871 79.0817 156.385 79.3228 155.649L79.2615 155.614L78.2717 156.774L73.5394 161.938L71.651 160.857L73.6953 154.139C73.779 153.856 73.9408 153.374 74.1879 152.69L74.1266 152.655C73.6191 153.227 73.2701 153.599 73.0864 153.784L68.0981 158.807L66.7361 158.021L74.2227 150.688L75.992 151.707L73.9646 158.48C73.853 158.858 73.676 159.365 73.4485 159.995L73.5098 160.03C73.9625 159.456 74.305 159.052 74.534 158.809L79.3541 153.639L81.1234 154.659L78.5557 164.818L78.5626 164.832Z" fill="white"/>
<path d="M65.0675 156.485L59.1827 151.333L60.1041 150.277L64.7619 154.354L66.6309 152.222L62.4598 148.567L63.3812 147.511L67.5523 151.166L69.568 148.866L64.8459 144.73L65.7674 143.674L71.7165 148.886L65.0714 156.474L65.0675 156.485Z" fill="white"/>
<path d="M57.1867 149.273L53.8674 145.164C53.2041 144.347 52.9165 143.562 52.9754 142.803C53.0417 142.041 53.4345 141.378 54.1394 140.803C54.6837 140.367 55.2418 140.114 55.8172 140.052C56.3925 139.989 56.9559 140.113 57.5001 140.426L59.4184 135.996L60.5391 137.383L58.7005 141.541L60.8532 144.203L64.0005 141.661L65.029 142.929L57.1867 149.273ZM57.5593 142.32C57.2331 141.914 56.8585 141.693 56.4393 141.646C56.0202 141.599 55.6 141.742 55.1897 142.079C54.8055 142.395 54.5921 142.748 54.5531 143.145C54.514 143.543 54.6685 143.949 55.0234 144.378L57.2542 147.13L59.7936 145.08L57.5628 142.328L57.5593 142.32Z" fill="white"/>
<path d="M48.0207 136.384L44.8547 129.91L46.1088 129.294L48.5582 134.299L51.2365 132.987L49.0237 128.467L50.2778 127.851L52.4906 132.371L56.3566 130.475L57.0732 131.944L48.0098 136.38L48.0207 136.384Z" fill="white"/>
<path d="M43.8886 127.449L42.3946 122.383C42.0942 121.378 42.1223 120.534 42.4825 119.86C42.8318 119.181 43.4535 118.718 44.3225 118.454C44.9889 118.259 45.6033 118.241 46.1658 118.401C46.7283 118.561 47.1916 118.894 47.5812 119.397L51.0518 116.044L51.5543 117.748L48.2608 120.883L49.2359 124.171L53.1125 123.027L53.5746 124.588L43.896 127.445L43.8886 127.449ZM46.8944 121.164C46.7496 120.663 46.4951 120.313 46.1126 120.114C45.7375 119.911 45.2997 119.882 44.7951 120.037C44.3202 120.179 43.9817 120.419 43.8048 120.773C43.628 121.127 43.6063 121.561 43.765 122.091L44.7665 125.493L47.8993 124.573L46.8978 121.171L46.8944 121.164Z" fill="white"/>
<path d="M49.6788 114.504C48.8948 115.468 47.649 116.044 45.927 116.22C44.2049 116.397 42.8677 116.086 41.9113 115.299C40.9441 114.508 40.385 113.317 40.2273 111.712C40.066 110.1 40.3754 108.818 41.1559 107.847C41.9399 106.883 43.1857 106.307 44.9078 106.13C46.6224 105.957 47.9636 106.257 48.9234 107.052C49.8833 107.846 50.4532 109.041 50.6109 110.646C50.7761 112.247 50.4667 113.529 49.6827 114.493L49.6788 114.504ZM45.1737 107.792L45.0015 107.81C42.5098 108.078 41.3716 109.325 41.6049 111.571C41.8313 113.802 43.1918 114.797 45.694 114.552L45.8662 114.534C48.3467 114.281 49.4666 113.033 49.2333 110.787C49.0039 108.53 47.6507 107.532 45.1703 107.785L45.1737 107.792Z" fill="white"/>
<path d="M39.8798 103.879L40.1119 101.433L46.7525 99.9485C47.1639 99.8636 47.7584 99.765 48.5395 99.66L48.5482 99.6018C47.7431 99.348 47.178 99.144 46.8455 98.9933L40.6082 96.2811L40.8429 93.8785L50.8839 94.8499L50.7268 96.476L44.1676 95.8463L42.3715 95.6156L42.3653 95.7178C42.7931 95.8599 43.13 95.9815 43.376 96.0826L50.4583 99.2103L50.321 100.629L42.7692 102.306C42.6149 102.343 42.3652 102.388 42.0021 102.441L41.6977 102.484L41.6885 102.561L43.4907 102.689L50.0499 103.319L49.906 104.858L39.865 103.886L39.8798 103.879Z" fill="white"/>
<path d="M42.2136 87.2056L42.8524 85.606L49.8928 86.4339C50.148 86.4584 50.6502 86.5476 51.4071 86.6795L51.438 86.6109L50.1499 85.7897L44.371 81.8243L45.1811 79.8013L52.1165 80.8861C52.4078 80.9299 52.9025 81.0225 53.6151 81.1753L53.646 81.1066C53.0133 80.6817 52.5891 80.3934 52.381 80.2385L46.7111 76.0053L47.2989 74.547L55.6055 80.9357L54.8459 82.8356L47.8588 81.7751C47.4692 81.7144 46.9454 81.6174 46.2837 81.4768L46.2528 81.5455C46.8868 81.9156 47.3366 82.2008 47.6061 82.3902L53.3975 86.4399L52.6379 88.3399L42.2205 87.2203L42.2136 87.2056Z" fill="white"/>
<path d="M48.6204 72.8439L49.4482 71.4354L58.152 76.5364L57.3242 77.945L48.6204 72.8439Z" fill="white"/>
<path d="M53.5851 67.7331L51.5817 70.4247L50.4475 69.5854L55.422 62.8995L56.5562 63.7388L54.5528 66.4304L61.5151 71.6091L60.54 72.9153L53.5777 67.7366L53.5851 67.7331Z" fill="white"/>
<path d="M56.9335 61.1787L58.1089 60.0492L61.0344 63.089L64.737 59.5183L61.8115 56.4786L62.9869 55.349L69.9891 62.6119L68.8137 63.7414L65.7205 60.5367L62.018 64.1073L65.1111 67.312L63.9357 68.4415L56.9335 61.1787Z" fill="white"/>
<path d="M65.395 53.5771L66.7021 52.5934L72.7488 60.6659L71.4417 61.6496L65.395 53.5771Z" fill="white"/>
<path d="M69.0489 50.8062L70.3501 50.0598L77.8493 53.3258C78.0193 53.3994 78.2431 53.5109 78.5317 53.6642L78.5844 53.6034L78.2053 52.9691L75.0098 47.3936L76.348 46.6299L81.3618 55.3859L80.0902 56.1184L72.5484 52.8003C72.4289 52.7571 72.2989 52.6918 72.1546 52.6151C72.0103 52.5385 71.9056 52.4884 71.8443 52.454L71.7882 52.5074L72.1707 53.1491L75.4118 58.8024L74.0736 59.5661L69.0598 50.8101L69.0489 50.8062Z" fill="white"/>
</g>
<defs>
<clipPath id="clip0_105_4">
<rect width="158" height="158" fill="white" transform="translate(0 67.1523) rotate(-25.1516)"/>
</clipPath>
</defs>
</svg>
